<svg width="108" height="38" viewBox="0 0 108 38" fill="none" xmlns="http://www.w3.org/2000/svg">
<path d="M8.96 28.28C8.13867 28.28 7.31733 28.2147 6.496 28.084C5.67467 27.972 4.9 27.7947 4.172 27.552C3.444 27.2907 2.79067 26.9733 2.212 26.6C1.876 26.376 1.64267 26.1053 1.512 25.788C1.38133 25.4707 1.33467 25.1627 1.372 24.864C1.428 24.5467 1.54933 24.276 1.736 24.052C1.94133 23.8093 2.19333 23.66 2.492 23.604C2.79067 23.548 3.11733 23.632 3.472 23.856C4.29333 24.3413 5.16133 24.696 6.076 24.92C6.99067 25.144 7.952 25.256 8.96 25.256C10.4347 25.256 11.508 25.0133 12.18 24.528C12.852 24.024 13.188 23.38 13.188 22.596C13.188 21.9427 12.9453 21.4293 12.46 21.056C11.9933 20.6827 11.1813 20.3747 10.024 20.132L6.944 19.488C5.17067 19.1147 3.84533 18.4893 2.968 17.612C2.10933 16.716 1.68 15.54 1.68 14.084C1.68 13.1693 1.86667 12.3387 2.24 11.592C2.61333 10.8453 3.136 10.2013 3.808 9.66C4.49867 9.11867 5.31067 8.708 6.244 8.428C7.196 8.12933 8.24133 7.98 9.38 7.98C10.5 7.98 11.564 8.12 12.572 8.4C13.58 8.68 14.4853 9.09067 15.288 9.632C15.5867 9.83733 15.7827 10.0893 15.876 10.388C15.988 10.6867 16.016 10.9853 15.96 11.284C15.904 11.564 15.7733 11.8067 15.568 12.012C15.3627 12.2173 15.1013 12.3387 14.784 12.376C14.4853 12.4133 14.14 12.32 13.748 12.096C13.0573 11.704 12.3573 11.424 11.648 11.256C10.9387 11.088 10.1733 11.004 9.352 11.004C8.49333 11.004 7.756 11.1253 7.14 11.368C6.524 11.6107 6.048 11.956 5.712 12.404C5.39467 12.8333 5.236 13.3467 5.236 13.944C5.236 14.616 5.46 15.1573 5.908 15.568C6.356 15.96 7.12133 16.268 8.204 16.492L11.256 17.136C13.104 17.528 14.476 18.144 15.372 18.984C16.2867 19.824 16.744 20.944 16.744 22.344C16.744 23.24 16.5573 24.052 16.184 24.78C15.8293 25.508 15.3067 26.1333 14.616 26.656C13.944 27.1787 13.132 27.58 12.18 27.86C11.228 28.14 10.1547 28.28 8.96 28.28ZM28.0241 28.28C26.6614 28.28 25.4574 28.1027 24.4121 27.748C23.3854 27.3933 22.5174 26.8707 21.8081 26.18C21.0987 25.4707 20.5667 24.5933 20.2121 23.548C19.8574 22.5027 19.6801 21.2893 19.6801 19.908V9.856C19.6801 9.24 19.8294 8.78267 20.1281 8.484C20.4454 8.18533 20.8934 8.036 21.4721 8.036C22.0507 8.036 22.4894 8.18533 22.7881 8.484C23.1054 8.78267 23.2641 9.24 23.2641 9.856V19.88C23.2641 21.6533 23.6654 22.988 24.4681 23.884C25.2894 24.7613 26.4747 25.2 28.0241 25.2C29.5734 25.2 30.7494 24.7613 31.5521 23.884C32.3547 22.988 32.7561 21.6533 32.7561 19.88V9.856C32.7561 9.24 32.9054 8.78267 33.2041 8.484C33.5214 8.18533 33.9694 8.036 34.5481 8.036C35.1081 8.036 35.5374 8.18533 35.8361 8.484C36.1534 8.78267 36.3121 9.24 36.3121 9.856V19.908C36.3121 21.7373 35.9947 23.2773 35.3601 24.528C34.7441 25.7787 33.8201 26.7213 32.5881 27.356C31.3561 27.972 29.8347 28.28 28.0241 28.28ZM42.3959 28C41.7799 28 41.3039 27.8413 40.9679 27.524C40.6506 27.188 40.4919 26.712 40.4919 26.096V10.164C40.4919 9.548 40.6506 9.08133 40.9679 8.764C41.3039 8.428 41.7799 8.26 42.3959 8.26H49.1159C50.4973 8.26 51.6733 8.46533 52.6439 8.876C53.6146 9.28667 54.3519 9.87467 54.8559 10.64C55.3786 11.4053 55.6399 12.32 55.6399 13.384C55.6399 14.5787 55.2946 15.5867 54.6039 16.408C53.9133 17.2293 52.9706 17.78 51.7759 18.06V17.64C53.1573 17.8453 54.2306 18.368 54.9959 19.208C55.7613 20.048 56.1439 21.14 56.1439 22.484C56.1439 24.2387 55.5466 25.6013 54.3519 26.572C53.1759 27.524 51.5333 28 49.4239 28H42.3959ZM43.9359 25.284H48.9759C50.2453 25.284 51.1786 25.0413 51.7759 24.556C52.3733 24.052 52.6719 23.3053 52.6719 22.316C52.6719 21.308 52.3733 20.5613 51.7759 20.076C51.1786 19.5907 50.2453 19.348 48.9759 19.348H43.9359V25.284ZM43.9359 16.632H48.4999C49.7319 16.632 50.6466 16.3987 51.2439 15.932C51.8599 15.4467 52.1679 14.7373 52.1679 13.804C52.1679 12.8707 51.8599 12.1707 51.2439 11.704C50.6466 11.2187 49.7319 10.976 48.4999 10.976H43.9359V16.632Z" fill="#006EBD"/>
<path d="M65.6213 28.28C64.6133 28.28 63.5679 28.1493 62.4853 27.888C61.4026 27.6267 60.4599 27.2347 59.6573 26.712C59.2839 26.4693 59.0319 26.1893 58.9013 25.872C58.7706 25.5547 58.7333 25.256 58.7893 24.976C58.8639 24.6773 59.0039 24.4253 59.2093 24.22C59.4333 24.0147 59.7039 23.8933 60.0213 23.856C60.3573 23.8187 60.7213 23.9027 61.1133 24.108C61.8786 24.5187 62.6159 24.8173 63.3253 25.004C64.0346 25.172 64.7626 25.256 65.5093 25.256C66.3306 25.256 67.0213 25.144 67.5813 24.92C68.1413 24.696 68.5613 24.36 68.8413 23.912C69.1399 23.464 69.2893 22.9227 69.2893 22.288C69.2893 21.3547 68.9719 20.664 68.3373 20.216C67.7213 19.7493 66.8159 19.516 65.6213 19.516H63.8293C63.3066 19.516 62.9053 19.3853 62.6253 19.124C62.3639 18.8627 62.2333 18.4987 62.2333 18.032C62.2333 17.5653 62.3639 17.2013 62.6253 16.94C62.9053 16.6787 63.3066 16.548 63.8293 16.548H65.2853C65.9946 16.548 66.6013 16.436 67.1053 16.212C67.6093 15.9693 68.0013 15.6333 68.2813 15.204C68.5613 14.7747 68.7013 14.252 68.7013 13.636C68.7013 12.7773 68.4119 12.124 67.8333 11.676C67.2733 11.228 66.4519 11.004 65.3693 11.004C64.6786 11.004 64.0253 11.088 63.4093 11.256C62.8119 11.4053 62.1493 11.6947 61.4213 12.124C61.0853 12.3293 60.7586 12.4133 60.4413 12.376C60.1426 12.3387 59.8906 12.2173 59.6853 12.012C59.4799 11.8067 59.3399 11.564 59.2653 11.284C59.1906 10.9853 59.2093 10.6867 59.3213 10.388C59.4333 10.0707 59.6666 9.8 60.0213 9.576C60.8239 9.05333 61.7106 8.66133 62.6813 8.4C63.6519 8.12 64.6506 7.98 65.6773 7.98C67.0399 7.98 68.2066 8.19467 69.1773 8.624C70.1479 9.03467 70.8853 9.632 71.3893 10.416C71.9119 11.1813 72.1733 12.1147 72.1733 13.216C72.1733 14 72.0239 14.7187 71.7253 15.372C71.4266 16.0067 71.0066 16.548 70.4653 16.996C69.9239 17.444 69.2706 17.7613 68.5053 17.948V17.612C69.8493 17.836 70.8946 18.396 71.6413 19.292C72.3879 20.1693 72.7613 21.2707 72.7613 22.596C72.7613 23.7533 72.4719 24.7613 71.8933 25.62C71.3146 26.4787 70.4933 27.1413 69.4293 27.608C68.3653 28.056 67.0959 28.28 65.6213 28.28ZM83.5303 28.28C81.9063 28.28 80.5157 27.8973 79.3583 27.132C78.2197 26.348 77.3517 25.228 76.7543 23.772C76.157 22.316 75.8583 20.552 75.8583 18.48C75.8583 16.8 76.045 15.316 76.4183 14.028C76.8103 12.7213 77.3703 11.62 78.0983 10.724C78.8263 9.828 79.713 9.14667 80.7583 8.68C81.8223 8.21333 83.017 7.98 84.3423 7.98C85.1637 7.98 85.9943 8.11067 86.8343 8.372C87.693 8.61467 88.4957 8.988 89.2423 9.492C89.541 9.67867 89.737 9.92133 89.8303 10.22C89.9237 10.5187 89.933 10.8173 89.8583 11.116C89.8023 11.396 89.6717 11.648 89.4663 11.872C89.2797 12.0773 89.037 12.208 88.7383 12.264C88.4397 12.3013 88.113 12.2173 87.7583 12.012C87.1237 11.6387 86.5263 11.3773 85.9663 11.228C85.4063 11.0787 84.8463 11.004 84.2863 11.004C83.2037 11.004 82.289 11.256 81.5423 11.76C80.7957 12.264 80.2263 13.02 79.8343 14.028C79.461 15.036 79.2743 16.296 79.2743 17.808V19.908H78.9383C79.0877 18.956 79.3957 18.144 79.8623 17.472C80.3477 16.7813 80.9637 16.2587 81.7103 15.904C82.457 15.5307 83.2877 15.344 84.2023 15.344C85.341 15.344 86.349 15.6147 87.2263 16.156C88.1037 16.6973 88.7943 17.444 89.2983 18.396C89.8023 19.348 90.0543 20.44 90.0543 21.672C90.0543 22.9413 89.7743 24.08 89.2143 25.088C88.673 26.0773 87.9077 26.8613 86.9183 27.44C85.9477 28 84.8183 28.28 83.5303 28.28ZM83.3343 25.424C84.0063 25.424 84.5943 25.2747 85.0983 24.976C85.621 24.6773 86.0223 24.2573 86.3023 23.716C86.5823 23.156 86.7223 22.5213 86.7223 21.812C86.7223 21.084 86.5823 20.4493 86.3023 19.908C86.0223 19.3667 85.621 18.9467 85.0983 18.648C84.5943 18.3307 84.0063 18.172 83.3343 18.172C82.6623 18.172 82.0743 18.3307 81.5703 18.648C81.0663 18.9467 80.665 19.3667 80.3663 19.908C80.0863 20.4493 79.9463 21.084 79.9463 21.812C79.9463 22.5213 80.0863 23.156 80.3663 23.716C80.665 24.2573 81.0663 24.6773 81.5703 24.976C82.0743 25.2747 82.6623 25.424 83.3343 25.424ZM99.7594 28.28C98.7701 28.28 97.7621 28.1493 96.7354 27.888C95.7087 27.6267 94.7661 27.2253 93.9074 26.684C93.5527 26.46 93.3101 26.1987 93.1794 25.9C93.0674 25.5827 93.0394 25.2747 93.0954 24.976C93.1701 24.6587 93.3101 24.3973 93.5154 24.192C93.7394 23.968 94.0007 23.8373 94.2994 23.8C94.6167 23.7627 94.9621 23.8467 95.3354 24.052C96.0261 24.444 96.7261 24.7427 97.4354 24.948C98.1447 25.1533 98.9007 25.256 99.7034 25.256C100.487 25.256 101.159 25.116 101.719 24.836C102.279 24.556 102.709 24.164 103.007 23.66C103.306 23.156 103.455 22.568 103.455 21.896C103.455 20.8507 103.138 20.0107 102.503 19.376C101.869 18.7227 101.001 18.396 99.8994 18.396C99.3021 18.396 98.7234 18.4987 98.1634 18.704C97.6034 18.8907 97.0527 19.2267 96.5114 19.712C96.3434 19.8613 96.1287 20.0107 95.8674 20.16C95.6061 20.2907 95.3261 20.356 95.0274 20.356C94.5607 20.356 94.2061 20.2347 93.9634 19.992C93.7207 19.7493 93.5994 19.4133 93.5994 18.984V9.828C93.5994 9.324 93.7301 8.94133 93.9914 8.68C94.2714 8.4 94.6634 8.26 95.1674 8.26H104.379C104.883 8.26 105.266 8.39067 105.527 8.652C105.807 8.89467 105.947 9.25867 105.947 9.744C105.947 10.2107 105.807 10.5747 105.527 10.836C105.266 11.0973 104.883 11.228 104.379 11.228H97.0994V17.5H96.1754C96.6607 16.8467 97.3047 16.3427 98.1074 15.988C98.9101 15.6333 99.7874 15.456 100.739 15.456C101.99 15.456 103.073 15.7267 103.987 16.268C104.921 16.7907 105.639 17.528 106.143 18.48C106.666 19.4133 106.927 20.5053 106.927 21.756C106.927 23.044 106.638 24.1827 106.059 25.172C105.481 26.1427 104.65 26.908 103.567 27.468C102.503 28.0093 101.234 28.28 99.7594 28.28Z" fill="#F69400"/>
</svg>
