<svg width="108" height="38" viewBox="0 0 108 38" fill="none" xmlns="http://www.w3.org/2000/svg">
<path d="M8.95982 28.2805C8.13849 28.2805 7.31715 28.2152 6.49582 28.0845C5.67449 27.9725 4.89982 27.7952 4.17182 27.5525C3.44382 27.2912 2.79049 26.9738 2.21182 26.6005C1.87582 26.3765 1.64249 26.1058 1.51182 25.7885C1.38115 25.4712 1.33449 25.1632 1.37182 24.8645C1.42782 24.5472 1.54915 24.2765 1.73582 24.0525C1.94115 23.8098 2.19315 23.6605 2.49182 23.6045C2.79049 23.5485 3.11715 23.6325 3.47182 23.8565C4.29315 24.3418 5.16115 24.6965 6.07582 24.9205C6.99049 25.1445 7.95182 25.2565 8.95982 25.2565C10.4345 25.2565 11.5078 25.0138 12.1798 24.5285C12.8518 24.0245 13.1878 23.3805 13.1878 22.5965C13.1878 21.9432 12.9451 21.4298 12.4598 21.0565C11.9931 20.6832 11.1811 20.3752 10.0238 20.1325L6.94382 19.4885C5.17049 19.1152 3.84515 18.4898 2.96782 17.6125C2.10915 16.7165 1.67982 15.5405 1.67982 14.0845C1.67982 13.1698 1.86649 12.3392 2.23982 11.5925C2.61315 10.8458 3.13582 10.2018 3.80782 9.66047C4.49849 9.11914 5.31049 8.70847 6.24382 8.42847C7.19582 8.1298 8.24115 7.98047 9.37982 7.98047C10.4998 7.98047 11.5638 8.12047 12.5718 8.40047C13.5798 8.68047 14.4851 9.09114 15.2878 9.63247C15.5865 9.8378 15.7825 10.0898 15.8758 10.3885C15.9878 10.6872 16.0158 10.9858 15.9598 11.2845C15.9038 11.5645 15.7731 11.8072 15.5678 12.0125C15.3625 12.2178 15.1011 12.3392 14.7838 12.3765C14.4851 12.4138 14.1398 12.3205 13.7478 12.0965C13.0571 11.7045 12.3571 11.4245 11.6478 11.2565C10.9385 11.0885 10.1731 11.0045 9.35182 11.0045C8.49315 11.0045 7.75582 11.1258 7.13982 11.3685C6.52382 11.6112 6.04782 11.9565 5.71182 12.4045C5.39449 12.8338 5.23582 13.3472 5.23582 13.9445C5.23582 14.6165 5.45982 15.1578 5.90782 15.5685C6.35582 15.9605 7.12115 16.2685 8.20382 16.4925L11.2558 17.1365C13.1038 17.5285 14.4758 18.1445 15.3718 18.9845C16.2865 19.8245 16.7438 20.9445 16.7438 22.3445C16.7438 23.2405 16.5571 24.0525 16.1838 24.7805C15.8291 25.5085 15.3065 26.1338 14.6158 26.6565C13.9438 27.1792 13.1318 27.5805 12.1798 27.8605C11.2278 28.1405 10.1545 28.2805 8.95982 28.2805ZM28.0239 28.2805C26.6612 28.2805 25.4572 28.1032 24.4119 27.7485C23.3852 27.3938 22.5172 26.8712 21.8079 26.1805C21.0985 25.4712 20.5665 24.5938 20.2119 23.5485C19.8572 22.5032 19.6799 21.2898 19.6799 19.9085V9.85647C19.6799 9.24047 19.8292 8.78314 20.1279 8.48447C20.4452 8.1858 20.8932 8.03647 21.4719 8.03647C22.0505 8.03647 22.4892 8.1858 22.7879 8.48447C23.1052 8.78314 23.2639 9.24047 23.2639 9.85647V19.8805C23.2639 21.6538 23.6652 22.9885 24.4679 23.8845C25.2892 24.7618 26.4745 25.2005 28.0239 25.2005C29.5732 25.2005 30.7492 24.7618 31.5519 23.8845C32.3545 22.9885 32.7559 21.6538 32.7559 19.8805V9.85647C32.7559 9.24047 32.9052 8.78314 33.2039 8.48447C33.5212 8.1858 33.9692 8.03647 34.5479 8.03647C35.1079 8.03647 35.5372 8.1858 35.8359 8.48447C36.1532 8.78314 36.3119 9.24047 36.3119 9.85647V19.9085C36.3119 21.7378 35.9945 23.2778 35.3599 24.5285C34.7439 25.7792 33.8199 26.7218 32.5879 27.3565C31.3559 27.9725 29.8345 28.2805 28.0239 28.2805ZM42.3957 28.0005C41.7797 28.0005 41.3037 27.8418 40.9677 27.5245C40.6504 27.1885 40.4917 26.7125 40.4917 26.0965V10.1645C40.4917 9.54847 40.6504 9.0818 40.9677 8.76447C41.3037 8.42847 41.7797 8.26047 42.3957 8.26047H49.1157C50.4971 8.26047 51.6731 8.4658 52.6437 8.87647C53.6144 9.28714 54.3517 9.87514 54.8557 10.6405C55.3784 11.4058 55.6397 12.3205 55.6397 13.3845C55.6397 14.5792 55.2944 15.5872 54.6037 16.4085C53.9131 17.2298 52.9704 17.7805 51.7757 18.0605V17.6405C53.1571 17.8458 54.2304 18.3685 54.9957 19.2085C55.7611 20.0485 56.1437 21.1405 56.1437 22.4845C56.1437 24.2392 55.5464 25.6018 54.3517 26.5725C53.1757 27.5245 51.5331 28.0005 49.4237 28.0005H42.3957ZM43.9357 25.2845H48.9757C50.2451 25.2845 51.1784 25.0418 51.7757 24.5565C52.3731 24.0525 52.6717 23.3058 52.6717 22.3165C52.6717 21.3085 52.3731 20.5618 51.7757 20.0765C51.1784 19.5912 50.2451 19.3485 48.9757 19.3485H43.9357V25.2845ZM43.9357 16.6325H48.4997C49.7317 16.6325 50.6464 16.3992 51.2437 15.9325C51.8597 15.4472 52.1677 14.7378 52.1677 13.8045C52.1677 12.8712 51.8597 12.1712 51.2437 11.7045C50.6464 11.2192 49.7317 10.9765 48.4997 10.9765H43.9357V16.6325Z" fill="white"/>
<path d="M65.6214 28.2805C64.6134 28.2805 63.568 28.1498 62.4854 27.8885C61.4027 27.6272 60.46 27.2352 59.6574 26.7125C59.284 26.4698 59.032 26.1898 58.9014 25.8725C58.7707 25.5552 58.7334 25.2565 58.7894 24.9765C58.864 24.6778 59.004 24.4258 59.2094 24.2205C59.4334 24.0152 59.704 23.8938 60.0214 23.8565C60.3574 23.8192 60.7214 23.9032 61.1134 24.1085C61.8787 24.5192 62.616 24.8178 63.3254 25.0045C64.0347 25.1725 64.7627 25.2565 65.5094 25.2565C66.3307 25.2565 67.0214 25.1445 67.5814 24.9205C68.1414 24.6965 68.5614 24.3605 68.8414 23.9125C69.14 23.4645 69.2894 22.9232 69.2894 22.2885C69.2894 21.3552 68.972 20.6645 68.3374 20.2165C67.7214 19.7498 66.816 19.5165 65.6214 19.5165H63.8294C63.3067 19.5165 62.9054 19.3858 62.6254 19.1245C62.364 18.8632 62.2334 18.4992 62.2334 18.0325C62.2334 17.5658 62.364 17.2018 62.6254 16.9405C62.9054 16.6792 63.3067 16.5485 63.8294 16.5485H65.2854C65.9947 16.5485 66.6014 16.4365 67.1054 16.2125C67.6094 15.9698 68.0014 15.6338 68.2814 15.2045C68.5614 14.7752 68.7014 14.2525 68.7014 13.6365C68.7014 12.7778 68.412 12.1245 67.8334 11.6765C67.2734 11.2285 66.452 11.0045 65.3694 11.0045C64.6787 11.0045 64.0254 11.0885 63.4094 11.2565C62.812 11.4058 62.1494 11.6952 61.4214 12.1245C61.0854 12.3298 60.7587 12.4138 60.4414 12.3765C60.1427 12.3392 59.8907 12.2178 59.6854 12.0125C59.48 11.8072 59.34 11.5645 59.2654 11.2845C59.1907 10.9858 59.2094 10.6872 59.3214 10.3885C59.4334 10.0712 59.6667 9.80047 60.0214 9.57647C60.824 9.0538 61.7107 8.6618 62.6814 8.40047C63.652 8.12047 64.6507 7.98047 65.6774 7.98047C67.04 7.98047 68.2067 8.19514 69.1774 8.62447C70.148 9.03514 70.8854 9.63247 71.3894 10.4165C71.912 11.1818 72.1734 12.1152 72.1734 13.2165C72.1734 14.0005 72.024 14.7192 71.7254 15.3725C71.4267 16.0072 71.0067 16.5485 70.4654 16.9965C69.924 17.4445 69.2707 17.7618 68.5054 17.9485V17.6125C69.8494 17.8365 70.8947 18.3965 71.6414 19.2925C72.388 20.1698 72.7614 21.2712 72.7614 22.5965C72.7614 23.7538 72.472 24.7618 71.8934 25.6205C71.3147 26.4792 70.4934 27.1418 69.4294 27.6085C68.3654 28.0565 67.096 28.2805 65.6214 28.2805ZM83.5304 28.2805C81.9064 28.2805 80.5158 27.8978 79.3584 27.1325C78.2198 26.3485 77.3518 25.2285 76.7544 23.7725C76.1571 22.3165 75.8584 20.5525 75.8584 18.4805C75.8584 16.8005 76.0451 15.3165 76.4184 14.0285C76.8104 12.7218 77.3704 11.6205 78.0984 10.7245C78.8264 9.82847 79.7131 9.14714 80.7584 8.68047C81.8224 8.2138 83.0171 7.98047 84.3424 7.98047C85.1638 7.98047 85.9944 8.11114 86.8344 8.37247C87.6931 8.61514 88.4958 8.98847 89.2424 9.49247C89.5411 9.67914 89.7371 9.9218 89.8304 10.2205C89.9238 10.5192 89.9331 10.8178 89.8584 11.1165C89.8024 11.3965 89.6718 11.6485 89.4664 11.8725C89.2798 12.0778 89.0371 12.2085 88.7384 12.2645C88.4398 12.3018 88.1131 12.2178 87.7584 12.0125C87.1238 11.6392 86.5264 11.3778 85.9664 11.2285C85.4064 11.0792 84.8464 11.0045 84.2864 11.0045C83.2038 11.0045 82.2891 11.2565 81.5424 11.7605C80.7958 12.2645 80.2264 13.0205 79.8344 14.0285C79.4611 15.0365 79.2744 16.2965 79.2744 17.8085V19.9085H78.9384C79.0878 18.9565 79.3958 18.1445 79.8624 17.4725C80.3478 16.7818 80.9638 16.2592 81.7104 15.9045C82.4571 15.5312 83.2878 15.3445 84.2024 15.3445C85.3411 15.3445 86.3491 15.6152 87.2264 16.1565C88.1038 16.6978 88.7944 17.4445 89.2984 18.3965C89.8024 19.3485 90.0544 20.4405 90.0544 21.6725C90.0544 22.9418 89.7744 24.0805 89.2144 25.0885C88.6731 26.0778 87.9078 26.8618 86.9184 27.4405C85.9478 28.0005 84.8184 28.2805 83.5304 28.2805ZM83.3344 25.4245C84.0064 25.4245 84.5944 25.2752 85.0984 24.9765C85.6211 24.6778 86.0224 24.2578 86.3024 23.7165C86.5824 23.1565 86.7224 22.5218 86.7224 21.8125C86.7224 21.0845 86.5824 20.4498 86.3024 19.9085C86.0224 19.3672 85.6211 18.9472 85.0984 18.6485C84.5944 18.3312 84.0064 18.1725 83.3344 18.1725C82.6624 18.1725 82.0744 18.3312 81.5704 18.6485C81.0664 18.9472 80.6651 19.3672 80.3664 19.9085C80.0864 20.4498 79.9464 21.0845 79.9464 21.8125C79.9464 22.5218 80.0864 23.1565 80.3664 23.7165C80.6651 24.2578 81.0664 24.6778 81.5704 24.9765C82.0744 25.2752 82.6624 25.4245 83.3344 25.4245ZM99.7595 28.2805C98.7702 28.2805 97.7622 28.1498 96.7355 27.8885C95.7088 27.6272 94.7662 27.2258 93.9075 26.6845C93.5528 26.4605 93.3102 26.1992 93.1795 25.9005C93.0675 25.5832 93.0395 25.2752 93.0955 24.9765C93.1702 24.6592 93.3102 24.3978 93.5155 24.1925C93.7395 23.9685 94.0008 23.8378 94.2995 23.8005C94.6168 23.7632 94.9622 23.8472 95.3355 24.0525C96.0262 24.4445 96.7262 24.7432 97.4355 24.9485C98.1448 25.1538 98.9008 25.2565 99.7035 25.2565C100.487 25.2565 101.159 25.1165 101.719 24.8365C102.279 24.5565 102.709 24.1645 103.007 23.6605C103.306 23.1565 103.455 22.5685 103.455 21.8965C103.455 20.8512 103.138 20.0112 102.503 19.3765C101.869 18.7232 101.001 18.3965 99.8995 18.3965C99.3022 18.3965 98.7235 18.4992 98.1635 18.7045C97.6035 18.8912 97.0528 19.2272 96.5115 19.7125C96.3435 19.8618 96.1288 20.0112 95.8675 20.1605C95.6062 20.2912 95.3262 20.3565 95.0275 20.3565C94.5608 20.3565 94.2062 20.2352 93.9635 19.9925C93.7208 19.7498 93.5995 19.4138 93.5995 18.9845V9.82847C93.5995 9.32447 93.7302 8.9418 93.9915 8.68047C94.2715 8.40047 94.6635 8.26047 95.1675 8.26047H104.379C104.883 8.26047 105.266 8.39114 105.527 8.65247C105.807 8.89514 105.947 9.25914 105.947 9.74447C105.947 10.2112 105.807 10.5752 105.527 10.8365C105.266 11.0978 104.883 11.2285 104.379 11.2285H97.0995V17.5005H96.1755C96.6608 16.8472 97.3048 16.3432 98.1075 15.9885C98.9102 15.6338 99.7875 15.4565 100.739 15.4565C101.99 15.4565 103.073 15.7272 103.987 16.2685C104.921 16.7912 105.639 17.5285 106.143 18.4805C106.666 19.4138 106.927 20.5058 106.927 21.7565C106.927 23.0445 106.638 24.1832 106.059 25.1725C105.481 26.1432 104.65 26.9085 103.567 27.4685C102.503 28.0098 101.234 28.2805 99.7595 28.2805Z" fill="#F69400"/>
</svg>
